<?xml version="1.0" standalone="no"?>
<!DOCTYPE svg PUBLIC "-//W3C//DTD SVG 20010904//EN"
 "http://www.w3.org/TR/2001/REC-SVG-20010904/DTD/svg10.dtd">
<svg version="1.0" xmlns="http://www.w3.org/2000/svg"
 width="300.000000pt" height="300.000000pt" viewBox="0 0 300.000000 300.000000"
 preserveAspectRatio="xMidYMid meet">
<metadata>
Created by potrace 1.14, written by Peter Selinger 2001-2017
</metadata>
<g transform="translate(0.000000,300.000000) scale(0.100000,-0.100000)"
fill="#000000" stroke="none">
<path d="M0 1500 l0 -1500 1500 0 1500 0 0 1500 0 1500 -1500 0 -1500 0 0
-1500z m2736 1289 c28 -7 51 -21 61 -35 18 -28 22 -19 -99 -224 -132 -226
-268 -478 -391 -727 -132 -268 -179 -382 -175 -426 3 -28 7 -32 34 -35 23 -2
45 8 91 41 63 47 162 157 189 210 38 75 88 98 118 55 24 -33 20 -49 -32 -150
-161 -315 -392 -521 -536 -478 -56 16 -105 56 -122 97 -14 32 -13 36 10 66 23
30 76 138 76 154 0 4 -31 -40 -68 -98 -122 -185 -249 -279 -379 -279 -75 0
-108 12 -151 53 -32 31 -62 105 -62 154 0 31 -11 29 -46 -8 -38 -41 -136 -110
-200 -142 -69 -35 -160 -57 -232 -57 -72 0 -106 13 -121 47 -26 56 -10 74 109
131 185 88 349 239 421 387 33 69 42 99 43 144 1 55 1 56 -29 59 -45 4 -141
-63 -255 -177 -134 -134 -178 -197 -290 -421 -202 -404 -302 -664 -326 -848
-12 -90 -48 -105 -113 -46 -54 48 -66 88 -65 214 2 125 35 264 115 479 138
368 457 1009 542 1089 71 67 317 44 317 -29 0 -6 -39 -46 -86 -91 -76 -73
-184 -213 -184 -239 0 -6 24 18 52 53 127 152 273 278 357 306 84 29 178 -3
215 -73 12 -22 22 -42 23 -44 2 -2 38 30 82 71 152 146 319 190 437 117 18
-11 34 -24 36 -30 2 -6 52 88 112 208 196 396 264 503 333 521 53 14 136 14
189 1z"/>
<path d="M1886 1870 c-100 -94 -233 -318 -285 -479 -27 -81 -28 -161 -4 -161
108 0 411 484 401 639 -3 42 -5 46 -30 49 -22 3 -40 -8 -82 -48z"/>
</g>
</svg>
